<?xml version="1.0" encoding="UTF-8"?> <svg xmlns="http://www.w3.org/2000/svg" xmlns:xlink="http://www.w3.org/1999/xlink" version="1.1" id="Layer_1" x="0px" y="0px" viewBox="0 0 255.8 229.5" style="enable-background:new 0 0 255.8 229.5;" xml:space="preserve"> <style type="text/css"> .st0{clip-path:url(#SVGID_00000013191987053964468210000000111007906576904879_);} .st1{clip-path:url(#SVGID_00000037657742795479943560000006849831248516559250_);fill:#FBBC04;} .st2{clip-path:url(#SVGID_00000037657742795479943560000006849831248516559250_);fill:#4285F4;} .st3{clip-path:url(#SVGID_00000037657742795479943560000006849831248516559250_);fill:#34A853;} </style> <g> <g> <defs> <rect id="SVGID_1_" width="255.8" height="229.5"></rect> </defs> <clipPath id="SVGID_00000006700829212455490820000005903012717214343580_"> <use xlink:href="#SVGID_1_" style="overflow:visible;"></use> </clipPath> <g style="clip-path:url(#SVGID_00000006700829212455490820000005903012717214343580_);"> <defs> <rect id="SVGID_00000151512637806537184430000011234016822410414762_" width="255.8" height="229.5"></rect> </defs> <clipPath id="SVGID_00000150083902331764642040000009296041176535126975_"> <use xlink:href="#SVGID_00000151512637806537184430000011234016822410414762_" style="overflow:visible;"></use> </clipPath> <path style="clip-path:url(#SVGID_00000150083902331764642040000009296041176535126975_);fill:#FBBC04;" d="M5.9,166.4l85-145.5 c10.8,6.4,65.2,36.5,74,42.2l-85,145.5C70.6,220.9-5.9,185,5.9,166.4"></path> <path style="clip-path:url(#SVGID_00000150083902331764642040000009296041176535126975_);fill:#4285F4;" d="M250.1,166.4 l-85-145.5c-11.9-19.8-37.5-27-58.5-15.3S79.2,42.5,91.1,63.1l85,145.5c11.9,19.8,37.5,27,58.5,15.3 C254.6,212.2,262,186.2,250.1,166.4"></path> <path style="clip-path:url(#SVGID_00000150083902331764642040000009296041176535126975_);fill:#34A853;" d="M42.7,146.3 c23.58,0,42.7,18.62,42.7,41.6s-19.12,41.6-42.7,41.6S0,210.88,0,187.9S19.12,146.3,42.7,146.3"></path> </g> </g> </g> </svg> 