<svg xmlns="http://www.w3.org/2000/svg" viewBox="20 22.3 334.8 211.8" width="335" height="212" fill="#e84f3b" role="img" aria-hidden="true"><path d="m68.8 94c0 8.1-6.6 14.7-14.7 14.7s-14.7-6.6-14.7-14.7 6.6-14.7 14.7-14.7 14.7 6.6 14.7 14.7"/><path d="m213.4 217.5c0 9.2-7.5 16.6-16.6 16.6-9.2 0-16.6-7.5-16.6-16.6 0-9.2 7.5-16.6 16.6-16.6s16.6 7.4 16.6 16.6"/><path d="m281 217.5c0 9.2-7.5 16.6-16.6 16.6-9.2 0-16.6-7.5-16.6-16.6 0-9.2 7.5-16.6 16.6-16.6s16.6 7.4 16.6 16.6"/><path d="m262.9 73.5-5.8 52.5c-.3 2.3-2.8 3.7-4.9 2.7l-12.3-6.2c-1.6-.8-3.5-.2-4.4 1.3l-13.5 22.4c-1 1.6-3 2.1-4.6 1.2l-6.5-3.7c-1.7-.9-2.2-3.1-1.2-4.7l12.7-20.8c1-1.7.4-3.9-1.4-4.8l-10.6-5.2c-2.3-1.2-2.5-4.4-.4-5.9l47.6-31.9c2.4-1.7 5.6.2 5.3 3.1m58.6-51.2h-285.9c-4.3 0-8.2 1.7-11 4.6-2.8 2.8-4.6 6.7-4.6 11 0 8.6 7 15.6 15.6 15.6h64.8c14.6 0 27.7 9.2 32.5 23.1l1 2.8h-42.1c-4.1 0-7.8 1.7-10.4 4.3-2.7 2.6-4.4 6.3-4.4 10.4 0 8.1 6.6 14.7 14.8 14.7h52.4l8.8 25.2h-42.3c-4.2 0-8 1.7-10.7 4.4s-4.4 6.5-4.4 10.7c0 8.3 6.8 15.1 15.2 15.1h53c7.9 18.7 26.3 31 46.9 31h57.3c13.9 0 26.4-8.7 31.1-21.8l53.6-106.4c8-21.7-8.1-44.7-31.2-44.7"/></svg>