<svg enable-background="new 0 0 2379.2 2451.9" viewBox="0 0 2379.2 2451.9" xmlns="http://www.w3.org/2000/svg"><path d="m2086.9 2018.4c-1012 481.6-1640 78.6-2042.1-166.1-24.9-15.4-67.2 3.6-30.5 45.7 133.9 162.4 572.9 553.8 1145.8 553.8 573.3 0 914.4-312.8 957.1-367.4 42.5-54.1 12.5-83.9-30.3-66zm284.2-157c-27.2-35.4-165.3-42-252.1-31.3-87 10.4-217.7 63.6-206.3 95.5 5.8 12 17.7 6.6 77.5 1.2 59.9-6 227.9-27.2 262.9 18.6 35.2 46.1-53.6 265.5-69.8 300.9-15.7 35.4 6 44.5 35.4 20.9 29-23.6 81.5-84.6 116.7-170.9 35-86.8 56.4-207.9 35.7-234.9z" fill="#f90"/><path clip-rule="evenodd" d="m1406.5 1035.6c0 126.4 3.2 231.8-60.7 344-51.6 91.3-133.2 147.4-224.5 147.4-124.6 0-197.1-94.9-197.1-235 0-276.5 247.7-326.7 482.2-326.7v70.3zm327.1 790.7c-21.4 19.2-52.5 20.5-76.6 7.8-107.7-89.4-126.8-130.9-186.1-216.2-177.9 181.6-303.8 235.9-534.7 235.9-272.8 0-485.4-168.3-485.4-505.5 0-263.2 142.8-442.5 345.8-530.1 176.1-77.6 422-91.3 610-112.7v-42c0-77.1 5.9-168.3-39.2-235-39.7-59.8-115.4-84.4-182-84.4-123.6 0-234 63.4-261 194.8-5.5 29.2-26.9 57.9-56.1 59.3l-314.8-33.8c-26.5-5.9-55.7-27.4-48.4-68 72.4-381.4 416.8-496.4 725.2-496.4 157.9 0 364.1 42 488.6 161.5 157.9 147.4 142.8 344 142.8 558v505.5c0 151.9 63 218.5 122.3 300.7 21 29.2 25.6 64.3-.9 86.2-66.2 55.2-183.9 157.9-248.6 215.3z" fill-rule="evenodd"/><path d="m2086.9 2018.4c-1012 481.6-1640 78.6-2042.1-166.1-24.9-15.4-67.2 3.6-30.5 45.7 133.9 162.4 572.9 553.8 1145.8 553.8 573.3 0 914.4-312.8 957.1-367.4 42.5-54.1 12.5-83.9-30.3-66zm284.2-157c-27.2-35.4-165.3-42-252.1-31.3-87 10.4-217.7 63.6-206.3 95.5 5.8 12 17.7 6.6 77.5 1.2 59.9-6 227.9-27.2 262.9 18.6 35.2 46.1-53.6 265.5-69.8 300.9-15.7 35.4 6 44.5 35.4 20.9 29-23.6 81.5-84.6 116.7-170.9 35-86.8 56.4-207.9 35.7-234.9z" fill="#f90"/><path clip-rule="evenodd" d="m1406.5 1035.6c0 126.4 3.2 231.8-60.7 344-51.6 91.3-133.2 147.4-224.5 147.4-124.6 0-197.1-94.9-197.1-235 0-276.5 247.7-326.7 482.2-326.7v70.3zm327.1 790.7c-21.4 19.2-52.5 20.5-76.6 7.8-107.7-89.4-126.8-130.9-186.1-216.2-177.9 181.6-303.8 235.9-534.7 235.9-272.8 0-485.4-168.3-485.4-505.5 0-263.2 142.8-442.5 345.8-530.1 176.1-77.6 422-91.3 610-112.7v-42c0-77.1 5.9-168.3-39.2-235-39.7-59.8-115.4-84.4-182-84.4-123.6 0-234 63.4-261 194.8-5.5 29.2-26.9 57.9-56.1 59.3l-314.8-33.8c-26.5-5.9-55.7-27.4-48.4-68 72.4-381.4 416.8-496.4 725.2-496.4 157.9 0 364.1 42 488.6 161.5 157.9 147.4 142.8 344 142.8 558v505.5c0 151.9 63 218.5 122.3 300.7 21 29.2 25.6 64.3-.9 86.2-66.2 55.2-183.9 157.9-248.6 215.3z" fill-rule="evenodd"/></svg>