<svg viewBox="0 0 122.88 122.88" xmlns="http://www.w3.org/2000/svg"><g fill-rule="evenodd"><path d="m98.74 32.91a8.78 8.78 0 1 0 -8.74-8.77 8.78 8.78 0 0 0 8.77 8.77zm-62.18-2.68 26.93-26.92a11.31 11.31 0 0 1 8-3.31h40a11.37 11.37 0 0 1 11.37 11.37v40a11.16 11.16 0 0 1 -3.37 8l-26.86 26.93z" fill="#4285f4"/><path d="m92.63 86.3-33.18 33.21a11.61 11.61 0 0 1 -8.1 3.37 11.39 11.39 0 0 1 -8.05-3.37l-39.93-39.93a11.14 11.14 0 0 1 -3.37-8 11.42 11.42 0 0 1 3.37-8.1l33.19-33.2z" fill="#34a853"/><path d="m22.75 99-19.38-19.42a11.14 11.14 0 0 1 -3.37-8 11.42 11.42 0 0 1 3.37-8.1l33.19-33.24 27.44 27.45z" fill="#fbbc05"/><path d="m118.94 2.76a11.37 11.37 0 0 0 -7.43-2.76h-40a11.31 11.31 0 0 0 -8 3.31l-26.95 26.92 27.44 27.46 28-28a8.74 8.74 0 0 1 -2-5.58 8.78 8.78 0 0 1 8.77-8.78 8.71 8.71 0 0 1 5.57 2z" fill="#ea4335"/><path d="m81.83 60.8a17.83 17.83 0 1 0 -17.83 17.83 17.83 17.83 0 0 0 17.83-17.83z" fill="#4285f4"/><path d="m88.29 55.56h-23.71v10.17h13.65c-1.23 6.46-6.6 10.17-13.65 10.17a15.57 15.57 0 0 1 0-31.12 14.46 14.46 0 0 1 9.42 3.47l7.4-7.66a24.84 24.84 0 0 0 -16.82-6.59c-14.11 0-25.45 11.74-25.45 26.34s11.34 26.33 25.45 26.33c12.72 0 24.29-9.57 24.29-26.33a22.31 22.31 0 0 0 -.58-4.78z" fill="#fff"/></g></svg>