<svg enable-background="new 0 0 1440 267" viewBox="0 0 1440 267" xmlns="http://www.w3.org/2000/svg"><path d="m1381.4 231.1c6.1 0 11.6-2.8 14.6-7.3v-13.2h-12v5.1h6.2v5.8c-2 2.5-5.2 4.1-8.7 4.1-6.6 0-11.5-5.4-11.5-11.9s4.9-11.9 11.5-11.9c3 0 5.6.8 7.9 2.7l3.6-4.1c-3.1-2.5-7-4.1-11.6-4.1-10.2 0-17.8 7.8-17.8 17.4 0 9.7 7.6 17.4 17.8 17.4m-72.9-.5h6v-24.3s2.7 4.6 5.6 8.6l11.5 15.7h6.3v-33.8h-6v24.5s-2.8-4.7-5.2-8l-12.1-16.6h-6.1zm-33 0h6v-33.8h-6zm-42.5 0h6v-28.6h11.9v-5.2h-29.8v5.2h11.9zm-61 0h26.9v-5.2h-20.9v-10h19v-5.2h-19v-8.2h20.2v-5.2h-26.2zm-54.2 0h6v-5.8l6.6-8 10.5 13.8h7.1l-13.8-18 12.5-15.8h-7.1l-12.1 15.1c-1.5 1.8-3.6 4.9-3.6 4.9v-20h-6v33.8zm-48.6-13.2v-15.4h8.5c4.8 0 8.2 3.4 8.2 7.8 0 4.2-3.4 7.7-8.2 7.7h-8.5zm-6 13.2h6v-8h7.7c1 0 2.1-.1 3-.3l5.9 8.2h7l-7.4-9.9c4.5-2.1 6.9-6.4 6.9-10.9 0-7.1-5.2-12.9-14.9-12.9h-14.3v33.8zm-49.2-10.6 3.9-8.8c1.5-3.4 3.3-7.9 3.3-7.9s1.9 4.5 3.3 7.9l3.9 8.8zm-10.9 10.6h6.1l2.7-5.8h18.6l2.7 5.8h6.1l-15.2-33.8h-5.7zm-59.2 0h6v-23.4s1.1 1.9 3.2 5l8.4 12 8.3-11.9c2.2-3.2 3.2-5.1 3.2-5.1v23.4h6v-33.8h-5.3l-4.7 6.6c-2.3 3.3-7.6 10.8-7.6 10.8s-5.3-7.5-7.7-10.8l-4.7-6.6h-5.3v33.8z" fill="#e74e3b"/><path d="m864.1 230.6h26.9v-5.2h-20.9v-10h19v-5.2h-19v-8.2h20.2v-5.2h-26.2zm-36.3.5c4.8 0 9.1-1.8 12.2-4.6l-3.7-4.2c-2.2 2.1-5.2 3.3-8.5 3.3-6.6 0-11.5-5.5-11.5-12s4.9-11.9 11.9-11.9c2.7 0 5.2.8 7.5 2.6l3.5-4.1c-3-2.5-7-4-11.4-4-10.2 0-17.8 7.8-17.8 17.4 0 9.7 7.6 17.5 17.8 17.5m-65-13.7v-15.4h8.5c4.8 0 8.2 3.4 8.2 7.8 0 4.2-3.4 7.7-8.2 7.7h-8.5zm-6.1 13.2h6v-8h7.7c1 0 2.1-.1 3-.3l5.9 8.2h7l-7.5-9.9c4.5-2.1 6.9-6.4 6.9-10.9 0-7.1-5.2-12.9-14.9-12.9h-14.3v33.8zm-51.5 0h26.9v-5.2h-20.9v-10h19v-5.2h-19v-8.2h20.2v-5.2h-26.2zm-62.2 0h6v-23.4s1.1 1.9 3.2 5l8.4 12 8.3-11.9c2.2-3.2 3.2-5.1 3.2-5.1v23.4h6v-33.8h-5.3l-4.7 6.6c-2.3 3.3-7.6 10.8-7.6 10.8s-5.3-7.5-7.7-10.8l-4.7-6.6h-5.1zm-62.2 0h6v-23.4s1.1 1.9 3.2 5l8.4 12 8.3-11.9c2.2-3.2 3.2-5.1 3.2-5.1v23.4h6v-33.8h-5.3l-4.7 6.6c-2.3 3.3-7.6 10.8-7.6 10.8s-5.3-7.5-7.7-10.8l-4.7-6.6h-5.3v33.8zm-43.4-5c-6.6 0-11.5-5.4-11.5-11.9s4.9-11.9 11.5-11.9c6.5 0 11.4 5.4 11.4 11.9s-4.9 11.9-11.4 11.9m0 5.5c10.2 0 17.8-7.7 17.8-17.4 0-9.6-7.6-17.4-17.8-17.4s-17.8 7.8-17.8 17.4c0 9.7 7.6 17.4 17.8 17.4m-52.7 0c4.8 0 9.1-1.8 12.2-4.6l-3.7-4.2c-2.2 2.1-5.2 3.3-8.5 3.3-6.6 0-11.5-5.5-11.5-12s4.9-11.9 11.9-11.9c2.7 0 5.2.8 7.4 2.6l3.5-4.1c-3-2.5-7-4-11.4-4-10.2 0-17.8 7.8-17.8 17.4.2 9.7 7.7 17.5 17.9 17.5m-62.5-14.7h21.1v-4.7h-21.1zm-49.7 14.2h26.9v-5.2h-20.9v-10h19v-5.2h-19v-8.2h20.2v-5.2h-26.2z" fill="#4f5459"/><path d="m1390.6 77.3v-16h-26.2v85.4h26.2v-38.9c0-7 1.9-12 5.7-15s9.2-4.4 16.1-4.4h7.5v-28c-6 0-11.6 1.5-16.8 4.6-5 3-9.2 7.1-12.5 12.3m-66.2 20.4h-33.4c.4-5.5 2.2-9.7 5.4-12.5 3.2-2.9 7.1-4.3 11.9-4.3 4.6 0 8.4 1.4 11.6 4.2 3.1 2.8 4.6 7 4.5 12.6m26.4 3.9c0-8.2-1.8-15.4-5.3-21.7s-8.5-11.1-14.9-14.6-13.9-5.2-22.3-5.2-15.8 1.8-22.3 5.3-11.6 8.6-15.2 15.1c-3.6 6.6-5.4 14.4-5.4 23.3s1.8 16.6 5.5 23.3 8.7 11.7 15.2 15.2 13.9 5.3 22.3 5.3c7.1 0 13.6-1.3 19.4-4.1 5.8-2.7 10.6-6.4 14.4-11.2 3.8-4.7 6.2-10.1 7.3-16.1h-27.7c-.8 3.1-2.5 5.6-5 7.5-2.6 1.9-5.8 2.9-9.6 2.9-4.6 0-8.4-1.4-11.3-4.2-3-2.8-4.6-7.4-4.9-13.8h59.2c.4-2.5.6-4.8.6-7m-90.5 45-35.2-42.7 34.4-42.7h-30.8l-25.6 34.3v-62.1h-26.1v113.2h26.2v-36.3l25.6 36.3zm-138.7-86.4c-8.4 0-15.8 1.8-22.3 5.3s-11.6 8.6-15.2 15.1c-3.6 6.6-5.4 14.4-5.4 23.3s1.8 16.6 5.5 23.3 8.7 11.7 15.2 15.2 13.9 5.3 22.3 5.3c11 0 20.2-3 27.7-9.1 7.4-6.1 12.1-14.4 14.1-25h-27.7c-.8 3.7-2.5 6.5-5 8.6-2.6 2-5.8 3.1-9.6 3.1-4.6 0-8.4-1.8-11.3-5.4-3-3.6-4.4-8.9-4.4-15.8s1.5-12.2 4.4-15.8c3-3.6 6.7-5.4 11.3-5.4 3.9 0 7.1 1 9.6 3.1 2.6 2 4.2 4.9 5 8.6h27.7c-1.9-10.6-6.6-18.9-14.1-25-7.5-6.4-16.7-9.4-27.8-9.4m-78.6 37.5h-33.4c.4-5.5 2.2-9.7 5.4-12.5 3.2-2.9 7.1-4.3 11.9-4.3 4.6 0 8.4 1.4 11.6 4.2 3.1 2.8 4.6 7 4.5 12.6m26.5 3.9c0-8.2-1.8-15.4-5.3-21.7s-8.5-11.1-14.9-14.6-13.9-5.2-22.3-5.2-15.8 1.8-22.3 5.3c-6.6 3.6-11.7 8.6-15.3 15.2s-5.4 14.4-5.4 23.3 1.8 16.6 5.5 23.3c3.7 6.6 8.7 11.7 15.2 15.2s13.9 5.3 22.3 5.3c7.1 0 13.6-1.3 19.4-4.1 5.8-2.7 10.6-6.4 14.4-11.2 3.8-4.7 6.2-10.1 7.3-16.1h-27.7c-.8 3.1-2.5 5.6-5 7.5-2.6 1.9-5.8 2.9-9.6 2.9-4.6 0-8.4-1.4-11.3-4.2-3-2.8-4.6-7.4-4.9-13.8h59.2c.4-2.6.7-4.9.7-7.1m-136.2 23.8h-18.7v-24.4h18.5c4.7 0 8.3 1.1 10.9 3.3 2.5 2.2 3.8 5.2 3.8 9.1 0 8-4.8 12-14.5 12m-18.7-66h16.8c9.3 0 13.9 3.9 13.9 11.6s-4.5 11.6-13.6 11.6h-17.1zm38.7 31.5c5.6-1.3 10.1-4.2 13.6-8.5s5.2-9.8 5.2-16.3c0-8.9-3-15.7-9-20.5s-14.5-7.2-25.6-7.2h-49.1v108.2h50.3c11.5 0 20.4-2.6 26.5-7.8 6.2-5.2 9.3-12.4 9.3-21.7 0-6.3-1.9-11.9-5.7-16.7s-8.9-7.9-15.5-9.5m-114.1-30.6c-6.5 0-12.2 1.5-17.1 4.4-4.8 3-8.5 7-10.9 12.1v-15.5h-26.2v85.4h26.2v-45.3c0-6.2 1.6-11 4.7-14.4s7.3-5 12.6-5c5 0 9 1.6 12 4.8s4.5 7.7 4.5 13.4v46.5h26.2v-49.6c0-11.4-2.9-20.4-8.6-26.9-5.8-6.6-13.6-9.9-23.4-9.9m-98.4 86.3h26.2v-85.3h-26.2zm-2.4-109.4c0 3.9 1.4 7.1 4.3 9.7s6.6 3.9 11.3 3.9 8.5-1.3 11.3-3.9c2.9-2.6 4.3-5.8 4.3-9.7 0-4-1.4-7.3-4.3-9.9s-6.6-3.9-11.3-3.9-8.5 1.3-11.3 3.9c-2.9 2.7-4.3 6-4.3 9.9m-20.5 86.9c-3.3 0-5.6-.7-7-2s-2.1-3.7-2.1-7v-31.8h17.2v-22h-17.1v-21h-26.2v21h-11.5v22h11.5v31.4c0 11.4 2.8 19.6 8.3 24.6 5.6 4.9 13.3 7.4 23.3 7.4h11.8v-22.5h-8.2zm-94-63.9c-10.6 0-18.8 2.4-24.6 7.1s-8.7 10.9-8.7 18.6c0 5.9 1.5 10.6 4.4 14 3 3.4 6.5 5.9 10.6 7.4s9.3 3 15.6 4.3c6.3 1.4 10.9 2.8 13.7 4.1s4.2 3.4 4.2 6.3c0 2.2-.8 4.1-2.3 5.4-1.5 1.4-3.8 2.1-6.7 2.1-4.3 0-7.8-1-10.5-2.9s-4.3-4.7-4.7-8.4h-25.2c1.5 9.5 5.8 16.8 12.7 21.9s16.2 7.7 27.7 7.7c6.8 0 12.8-1.1 17.7-3.2 5-2.1 8.8-5.1 11.5-8.9s4-8.1 4-13c0-6-1.5-10.8-4.6-14.4s-6.7-6.1-10.9-7.7-9.5-3.1-16.1-4.7c-6-1.3-10.4-2.7-13.2-4s-4.2-3.3-4.2-6c0-2.3.8-4.2 2.3-5.4 1.5-1.3 3.8-1.9 6.7-1.9 3.8 0 6.9 1 9.4 3s4.1 4.7 4.8 8.2h24.5c-1.6-8.9-5.7-16-12.2-21.4-6.4-5.5-15.1-8.2-25.9-8.2m-75.4 1.1v45.3c0 6.2-1.5 11-4.6 14.4s-7.2 5-12.5 5c-5.1 0-9.2-1.6-12.2-4.8s-4.5-7.7-4.5-13.5v-46.4h-26v49.6c0 11.4 2.9 20.4 8.6 26.9 5.8 6.5 13.5 9.8 23.3 9.8 6.4 0 12.1-1.5 16.9-4.4 4.8-3 8.5-6.9 10.9-11.9v15.5h26.3v-85.5zm-137.1 45.7 13.6-39.8 13.5 39.8zm40.6 39.6h27.8l-39.6-107.4h-30.2l-39.6 107.4h27.5l6.7-19.7h40.5z" fill="#333132"/><g fill="#e84f3b"><path d="m68.8 94c0 8.1-6.6 14.7-14.7 14.7s-14.7-6.6-14.7-14.7 6.6-14.7 14.7-14.7 14.7 6.6 14.7 14.7"/><path d="m213.4 217.5c0 9.2-7.5 16.6-16.6 16.6-9.2 0-16.6-7.5-16.6-16.6 0-9.2 7.5-16.6 16.6-16.6s16.6 7.4 16.6 16.6"/><path d="m281 217.5c0 9.2-7.5 16.6-16.6 16.6-9.2 0-16.6-7.5-16.6-16.6 0-9.2 7.5-16.6 16.6-16.6s16.6 7.4 16.6 16.6"/><path d="m262.9 73.5-5.8 52.5c-.3 2.3-2.8 3.7-4.9 2.7l-12.3-6.2c-1.6-.8-3.5-.2-4.4 1.3l-13.5 22.4c-1 1.6-3 2.1-4.6 1.2l-6.5-3.7c-1.7-.9-2.2-3.1-1.2-4.7l12.7-20.8c1-1.7.4-3.9-1.4-4.8l-10.6-5.2c-2.3-1.2-2.5-4.4-.4-5.9l47.6-31.9c2.4-1.7 5.6.2 5.3 3.1m58.6-51.2h-285.9c-4.3 0-8.2 1.7-11 4.6-2.8 2.8-4.6 6.7-4.6 11 0 8.6 7 15.6 15.6 15.6h64.8c14.6 0 27.7 9.2 32.5 23.1l1 2.8h-42.1c-4.1 0-7.8 1.7-10.4 4.3-2.7 2.6-4.4 6.3-4.4 10.4 0 8.1 6.6 14.7 14.8 14.7h52.4l8.8 25.2h-42.3c-4.2 0-8 1.7-10.7 4.4s-4.4 6.5-4.4 10.7c0 8.3 6.8 15.1 15.2 15.1h53c7.9 18.7 26.3 31 46.9 31h57.3c13.9 0 26.4-8.7 31.1-21.8l53.6-106.4c8-21.7-8.1-44.7-31.2-44.7"/></g></svg>