<svg xmlns="http://www.w3.org/2000/svg" viewBox="0 0 512 512" aria-hidden="true"><path fill="#FF4500" d="M256 0C114.615 0 0 114.615 0 256s114.615 256 256 256 256-114.615 256-256S397.385 0 256 0zm88.32 302.08c-5.12 8.96-17.92 12.8-26.88 7.68-36.864-22.528-78.848-34.816-123.392-34.816-44.544 0-86.528 12.288-123.392 34.816-8.96 5.12-21.76 1.28-26.88-7.68-5.12-8.96-1.28-21.76 7.68-26.88 14.336-8.704 29.696-15.872 45.568-21.504-27.648-20.992-45.568-53.76-45.568-90.624 0-63.488 51.712-115.2 115.2-115.2s115.2 51.712 115.2 115.2c0 36.864-17.92 69.632-45.568 90.624 15.872 5.632 31.232 12.8 45.568 21.504 8.96 5.12 12.8 17.92 7.68 26.88zM176 192c0-17.664 14.336-32 32-32s32 14.336 32 32-14.336 32-32 32-32-14.336-32-32zm160 0c0-17.664 14.336-32 32-32s32 14.336 32 32-14.336 32-32 32-32-14.336-32-32z"/></svg>
