<svg xmlns="http://www.w3.org/2000/svg" width="400" height="400" viewBox="0 0 400 400" role="img" aria-label="Apparel product">
  <rect width="400" height="400" fill="#e8eaed"/>
  <ellipse cx="200" cy="318" rx="72" ry="12" fill="rgba(0,0,0,0.09)"/>
  <g transform="translate(200 195)">
    <path fill="#3a3a3a" d="M-78,-8 C-78,-42 -42,-62 0,-62 C42,-62 78,-42 78,-8 L68,88 L-68,88 Z"/>
    <path fill="#2f2f2f" d="M-30,-62 L-18,-88 L18,-88 L30,-62 Z"/>
    <path fill="#4a4a4a" d="M-78,-8 L-48,-28 L-28,-18 L0,-32 L28,-18 L48,-28 L78,-8 L68,-2 L-68,-2 Z"/>
    <path fill="rgba(255,255,255,0.06)" d="M-40,-20 L-20,70 L-55,70 Z"/>
  </g>
</svg>
